<svg width="389" height="102" viewBox="0 0 389 102" fill="none" xmlns="http://www.w3.org/2000/svg">
<mask id="path-1-outside-1_1_5" maskUnits="userSpaceOnUse" x="-1" y="-1" width="391" height="104" fill="black">
<rect fill="white" x="-1" y="-1" width="391" height="104"/>
<path d="M0 100V6.90909H40.1818C47.0909 6.90909 53.1364 8.16666 58.3182 10.6818C63.5 13.197 67.5303 16.8182 70.4091 21.5455C73.2879 26.2727 74.7273 31.9394 74.7273 38.5455C74.7273 45.2121 73.2424 50.8333 70.2727 55.4091C67.3333 59.9848 63.197 63.4394 57.8636 65.7727C52.5606 68.1061 46.3636 69.2727 39.2727 69.2727H15.2727V49.6364H34.1818C37.1515 49.6364 39.6818 49.2727 41.7727 48.5455C43.8939 47.7879 45.5152 46.5909 46.6364 44.9545C47.7879 43.3182 48.3636 41.1818 48.3636 38.5455C48.3636 35.8788 47.7879 33.7121 46.6364 32.0455C45.5152 30.3485 43.8939 29.1061 41.7727 28.3182C39.6818 27.5 37.1515 27.0909 34.1818 27.0909H25.2727V100H0ZM54.5455 57.2727L77.8182 100H50.3636L27.6364 57.2727H54.5455ZM117.818 101.273C110.364 101.273 103.939 99.8485 98.5455 97C93.1818 94.1212 89.0455 90 86.1364 84.6364C83.2576 79.2424 81.8182 72.7879 81.8182 65.2727C81.8182 58.0606 83.2727 51.7576 86.1818 46.3636C89.0909 40.9697 93.197 36.7727 98.5 33.7727C103.803 30.7727 110.061 29.2727 117.273 29.2727C122.545 29.2727 127.318 30.0909 131.591 31.7273C135.864 33.3636 139.515 35.7424 142.545 38.8636C145.576 41.9545 147.909 45.7121 149.545 50.1364C151.182 54.5606 152 59.5455 152 65.0909V70.9091H89.6364V57.0909H128.909C128.879 55.0909 128.364 53.3333 127.364 51.8182C126.394 50.2727 125.076 49.0758 123.409 48.2273C121.773 47.3485 119.909 46.9091 117.818 46.9091C115.788 46.9091 113.924 47.3485 112.227 48.2273C110.53 49.0758 109.167 50.2576 108.136 51.7727C107.136 53.2879 106.606 55.0606 106.545 57.0909V72C106.545 74.2424 107.015 76.2424 107.955 78C108.894 79.7576 110.242 81.1364 112 82.1364C113.758 83.1364 115.879 83.6364 118.364 83.6364C120.091 83.6364 121.667 83.3939 123.091 82.9091C124.545 82.4242 125.788 81.7273 126.818 80.8182C127.848 79.8788 128.606 78.7576 129.091 77.4545H152C151.212 82.303 149.348 86.5152 146.409 90.0909C143.47 93.6364 139.576 96.3939 134.727 98.3636C129.909 100.303 124.273 101.273 117.818 101.273ZM187.33 6.90909V100H162.239V6.90909H187.33ZM200.114 100V30.1818H225.205V100H200.114ZM212.659 22.9091C209.265 22.9091 206.356 21.7879 203.932 19.5455C201.508 17.303 200.295 14.6061 200.295 11.4545C200.295 8.30303 201.508 5.60606 203.932 3.36363C206.356 1.12121 209.265 0 212.659 0C216.083 0 218.992 1.12121 221.386 3.36363C223.811 5.60606 225.023 8.30303 225.023 11.4545C225.023 14.6061 223.811 17.303 221.386 19.5455C218.992 21.7879 216.083 22.9091 212.659 22.9091ZM271.625 101.273C264.049 101.273 257.564 99.7727 252.17 96.7727C246.777 93.7424 242.64 89.5303 239.761 84.1364C236.883 78.7121 235.443 72.4242 235.443 65.2727C235.443 58.1212 236.883 51.8485 239.761 46.4545C242.64 41.0303 246.777 36.8182 252.17 33.8182C257.564 30.7879 264.049 29.2727 271.625 29.2727C279.201 29.2727 285.686 30.7879 291.08 33.8182C296.473 36.8182 300.61 41.0303 303.489 46.4545C306.367 51.8485 307.807 58.1212 307.807 65.2727C307.807 72.4242 306.367 78.7121 303.489 84.1364C300.61 89.5303 296.473 93.7424 291.08 96.7727C285.686 99.7727 279.201 101.273 271.625 101.273ZM271.807 82.7273C273.928 82.7273 275.761 82.0152 277.307 80.5909C278.852 79.1667 280.049 77.1364 280.898 74.5C281.746 71.8636 282.17 68.7273 282.17 65.0909C282.17 61.4242 281.746 58.2879 280.898 55.6818C280.049 53.0455 278.852 51.0152 277.307 49.5909C275.761 48.1667 273.928 47.4545 271.807 47.4545C269.564 47.4545 267.64 48.1667 266.034 49.5909C264.428 51.0152 263.201 53.0455 262.352 55.6818C261.504 58.2879 261.08 61.4242 261.08 65.0909C261.08 68.7273 261.504 71.8636 262.352 74.5C263.201 77.1364 264.428 79.1667 266.034 80.5909C267.64 82.0152 269.564 82.7273 271.807 82.7273ZM343.08 60.7273V100H317.989V30.1818H341.807V43.4545H342.534C344.049 39.0303 346.716 35.5606 350.534 33.0455C354.383 30.5303 358.867 29.2727 363.989 29.2727C368.928 29.2727 373.216 30.4091 376.852 32.6818C380.519 34.9242 383.352 38.0151 385.352 41.9545C387.383 45.8939 388.383 50.3939 388.352 55.4545V100H363.261V60.7273C363.292 57.2727 362.413 54.5606 360.625 52.5909C358.867 50.6212 356.413 49.6364 353.261 49.6364C351.201 49.6364 349.398 50.0909 347.852 51C346.337 51.8788 345.17 53.1515 344.352 54.8182C343.534 56.4545 343.11 58.4242 343.08 60.7273Z"/>
</mask>
<path d="M0 100V6.90909H40.1818C47.0909 6.90909 53.1364 8.16666 58.3182 10.6818C63.5 13.197 67.5303 16.8182 70.4091 21.5455C73.2879 26.2727 74.7273 31.9394 74.7273 38.5455C74.7273 45.2121 73.2424 50.8333 70.2727 55.4091C67.3333 59.9848 63.197 63.4394 57.8636 65.7727C52.5606 68.1061 46.3636 69.2727 39.2727 69.2727H15.2727V49.6364H34.1818C37.1515 49.6364 39.6818 49.2727 41.7727 48.5455C43.8939 47.7879 45.5152 46.5909 46.6364 44.9545C47.7879 43.3182 48.3636 41.1818 48.3636 38.5455C48.3636 35.8788 47.7879 33.7121 46.6364 32.0455C45.5152 30.3485 43.8939 29.1061 41.7727 28.3182C39.6818 27.5 37.1515 27.0909 34.1818 27.0909H25.2727V100H0ZM54.5455 57.2727L77.8182 100H50.3636L27.6364 57.2727H54.5455ZM117.818 101.273C110.364 101.273 103.939 99.8485 98.5455 97C93.1818 94.1212 89.0455 90 86.1364 84.6364C83.2576 79.2424 81.8182 72.7879 81.8182 65.2727C81.8182 58.0606 83.2727 51.7576 86.1818 46.3636C89.0909 40.9697 93.197 36.7727 98.5 33.7727C103.803 30.7727 110.061 29.2727 117.273 29.2727C122.545 29.2727 127.318 30.0909 131.591 31.7273C135.864 33.3636 139.515 35.7424 142.545 38.8636C145.576 41.9545 147.909 45.7121 149.545 50.1364C151.182 54.5606 152 59.5455 152 65.0909V70.9091H89.6364V57.0909H128.909C128.879 55.0909 128.364 53.3333 127.364 51.8182C126.394 50.2727 125.076 49.0758 123.409 48.2273C121.773 47.3485 119.909 46.9091 117.818 46.9091C115.788 46.9091 113.924 47.3485 112.227 48.2273C110.53 49.0758 109.167 50.2576 108.136 51.7727C107.136 53.2879 106.606 55.0606 106.545 57.0909V72C106.545 74.2424 107.015 76.2424 107.955 78C108.894 79.7576 110.242 81.1364 112 82.1364C113.758 83.1364 115.879 83.6364 118.364 83.6364C120.091 83.6364 121.667 83.3939 123.091 82.9091C124.545 82.4242 125.788 81.7273 126.818 80.8182C127.848 79.8788 128.606 78.7576 129.091 77.4545H152C151.212 82.303 149.348 86.5152 146.409 90.0909C143.47 93.6364 139.576 96.3939 134.727 98.3636C129.909 100.303 124.273 101.273 117.818 101.273ZM187.33 6.90909V100H162.239V6.90909H187.33ZM200.114 100V30.1818H225.205V100H200.114ZM212.659 22.9091C209.265 22.9091 206.356 21.7879 203.932 19.5455C201.508 17.303 200.295 14.6061 200.295 11.4545C200.295 8.30303 201.508 5.60606 203.932 3.36363C206.356 1.12121 209.265 0 212.659 0C216.083 0 218.992 1.12121 221.386 3.36363C223.811 5.60606 225.023 8.30303 225.023 11.4545C225.023 14.6061 223.811 17.303 221.386 19.5455C218.992 21.7879 216.083 22.9091 212.659 22.9091ZM271.625 101.273C264.049 101.273 257.564 99.7727 252.17 96.7727C246.777 93.7424 242.64 89.5303 239.761 84.1364C236.883 78.7121 235.443 72.4242 235.443 65.2727C235.443 58.1212 236.883 51.8485 239.761 46.4545C242.64 41.0303 246.777 36.8182 252.17 33.8182C257.564 30.7879 264.049 29.2727 271.625 29.2727C279.201 29.2727 285.686 30.7879 291.08 33.8182C296.473 36.8182 300.61 41.0303 303.489 46.4545C306.367 51.8485 307.807 58.1212 307.807 65.2727C307.807 72.4242 306.367 78.7121 303.489 84.1364C300.61 89.5303 296.473 93.7424 291.08 96.7727C285.686 99.7727 279.201 101.273 271.625 101.273ZM271.807 82.7273C273.928 82.7273 275.761 82.0152 277.307 80.5909C278.852 79.1667 280.049 77.1364 280.898 74.5C281.746 71.8636 282.17 68.7273 282.17 65.0909C282.17 61.4242 281.746 58.2879 280.898 55.6818C280.049 53.0455 278.852 51.0152 277.307 49.5909C275.761 48.1667 273.928 47.4545 271.807 47.4545C269.564 47.4545 267.64 48.1667 266.034 49.5909C264.428 51.0152 263.201 53.0455 262.352 55.6818C261.504 58.2879 261.08 61.4242 261.08 65.0909C261.08 68.7273 261.504 71.8636 262.352 74.5C263.201 77.1364 264.428 79.1667 266.034 80.5909C267.64 82.0152 269.564 82.7273 271.807 82.7273ZM343.08 60.7273V100H317.989V30.1818H341.807V43.4545H342.534C344.049 39.0303 346.716 35.5606 350.534 33.0455C354.383 30.5303 358.867 29.2727 363.989 29.2727C368.928 29.2727 373.216 30.4091 376.852 32.6818C380.519 34.9242 383.352 38.0151 385.352 41.9545C387.383 45.8939 388.383 50.3939 388.352 55.4545V100H363.261V60.7273C363.292 57.2727 362.413 54.5606 360.625 52.5909C358.867 50.6212 356.413 49.6364 353.261 49.6364C351.201 49.6364 349.398 50.0909 347.852 51C346.337 51.8788 345.17 53.1515 344.352 54.8182C343.534 56.4545 343.11 58.4242 343.08 60.7273Z" fill="white"/>
<path d="M0 100H-1V101H0V100ZM0 6.90909V5.90909H-1V6.90909H0ZM58.3182 10.6818L57.8815 11.5814L58.3182 10.6818ZM70.4091 21.5455L71.2632 21.0253L71.2632 21.0253L70.4091 21.5455ZM70.2727 55.4091L69.4339 54.8647L69.4314 54.8686L70.2727 55.4091ZM57.8636 65.7727L57.4628 64.8566L57.4609 64.8574L57.8636 65.7727ZM15.2727 69.2727H14.2727V70.2727H15.2727V69.2727ZM15.2727 49.6364V48.6364H14.2727V49.6364H15.2727ZM41.7727 48.5455L42.1013 49.49L42.1091 49.4872L41.7727 48.5455ZM46.6364 44.9545L45.8185 44.379L45.8114 44.3893L46.6364 44.9545ZM46.6364 32.0455L45.802 32.5967L45.8077 32.6054L45.8136 32.6139L46.6364 32.0455ZM41.7727 28.3182L41.4083 29.2494L41.4164 29.2526L41.4245 29.2556L41.7727 28.3182ZM25.2727 27.0909V26.0909H24.2727V27.0909H25.2727ZM25.2727 100V101H26.2727V100H25.2727ZM54.5455 57.2727L55.4236 56.7944L55.1395 56.2727H54.5455V57.2727ZM77.8182 100V101H79.5016L78.6964 99.5217L77.8182 100ZM50.3636 100L49.4808 100.47L49.7629 101H50.3636V100ZM27.6364 57.2727V56.2727H25.9718L26.7535 57.7423L27.6364 57.2727ZM1 100V6.90909H-1V100H1ZM0 7.90909H40.1818V5.90909H0V7.90909ZM40.1818 7.90909C46.9695 7.90909 52.8603 9.14423 57.8815 11.5814L58.7548 9.78219C53.4124 7.1891 47.2124 5.90909 40.1818 5.90909V7.90909ZM57.8815 11.5814C62.8981 14.0164 66.7802 17.5091 69.555 22.0656L71.2632 21.0253C68.2804 16.1272 64.1019 12.3776 58.7548 9.78219L57.8815 11.5814ZM69.555 22.0656C72.3213 26.6082 73.7273 32.0871 73.7273 38.5455H75.7273C75.7273 31.7917 74.2544 25.9373 71.2632 21.0253L69.555 22.0656ZM73.7273 38.5455C73.7273 45.0621 72.2771 50.4838 69.4339 54.8647L71.1116 55.9535C74.2077 51.1829 75.7273 45.3622 75.7273 38.5455H73.7273ZM69.4314 54.8686C66.6062 59.2666 62.6288 62.5964 57.4628 64.8566L58.2645 66.6889C63.7651 64.2823 68.0605 60.7031 71.1141 55.9496L69.4314 54.8686ZM57.4609 64.8574C52.3099 67.1239 46.2553 68.2727 39.2727 68.2727V70.2727C46.472 70.2727 52.8114 69.0883 58.2664 66.688L57.4609 64.8574ZM39.2727 68.2727H15.2727V70.2727H39.2727V68.2727ZM16.2727 69.2727V49.6364H14.2727V69.2727H16.2727ZM15.2727 50.6364H34.1818V48.6364H15.2727V50.6364ZM34.1818 50.6364C37.2276 50.6364 39.8755 50.2641 42.1012 49.4899L41.4442 47.601C39.4881 48.2813 37.0754 48.6364 34.1818 48.6364V50.6364ZM42.1091 49.4872C44.4007 48.6687 46.2052 47.353 47.4613 45.5198L45.8114 44.3893C44.8251 45.8288 43.3871 46.907 41.4364 47.6037L42.1091 49.4872ZM47.4542 45.53C48.7567 43.679 49.3636 41.3231 49.3636 38.5455H47.3636C47.3636 41.0406 46.819 42.9573 45.8186 44.379L47.4542 45.53ZM49.3636 38.5455C49.3636 35.7392 48.7575 33.3563 47.4591 31.477L45.8136 32.6139C46.8182 34.0679 47.3636 36.0184 47.3636 38.5455H49.3636ZM47.4707 31.4942C46.2194 29.6004 44.4176 28.2338 42.1209 27.3808L41.4245 29.2556C43.3703 29.9783 44.8109 31.0966 45.802 32.5967L47.4707 31.4942ZM42.1371 27.3869C39.8993 26.5113 37.2382 26.0909 34.1818 26.0909V28.0909C37.0648 28.0909 39.4643 28.4887 41.4083 29.2494L42.1371 27.3869ZM34.1818 26.0909H25.2727V28.0909H34.1818V26.0909ZM24.2727 27.0909V100H26.2727V27.0909H24.2727ZM25.2727 99H0V101H25.2727V99ZM53.6673 57.7511L76.94 100.478L78.6964 99.5217L55.4236 56.7944L53.6673 57.7511ZM77.8182 99H50.3636V101H77.8182V99ZM51.2465 99.5304L28.5192 56.8031L26.7535 57.7423L49.4808 100.47L51.2465 99.5304ZM27.6364 58.2727H54.5455V56.2727H27.6364V58.2727ZM98.5455 97L98.0725 97.8811L98.0785 97.8843L98.5455 97ZM86.1364 84.6364L85.2541 85.1072L85.2573 85.1131L86.1364 84.6364ZM86.1818 46.3636L87.062 46.8383L87.062 46.8383L86.1818 46.3636ZM98.5 33.7727L98.9924 34.6431L98.9924 34.6431L98.5 33.7727ZM131.591 31.7273L131.949 30.7934L131.949 30.7934L131.591 31.7273ZM142.545 38.8636L141.828 39.5602L141.831 39.5637L142.545 38.8636ZM149.545 50.1364L148.608 50.4833L148.608 50.4833L149.545 50.1364ZM152 70.9091V71.9091H153V70.9091H152ZM89.6364 70.9091H88.6364V71.9091H89.6364V70.9091ZM89.6364 57.0909V56.0909H88.6364V57.0909H89.6364ZM128.909 57.0909V58.0909H129.924L129.909 57.0758L128.909 57.0909ZM127.364 51.8182L126.517 52.3497L126.523 52.3594L126.529 52.369L127.364 51.8182ZM123.409 48.2273L122.936 49.1083L122.946 49.1135L122.955 49.1184L123.409 48.2273ZM112.227 48.2273L112.674 49.1217L112.681 49.1185L112.687 49.1153L112.227 48.2273ZM108.136 51.7727L107.309 51.2104L107.302 51.2219L108.136 51.7727ZM106.545 57.0909L105.546 57.0611L105.545 57.076V57.0909H106.545ZM107.955 78L107.073 78.4714L107.073 78.4714L107.955 78ZM112 82.1364L111.505 83.0055L111.505 83.0055L112 82.1364ZM123.091 82.9091L122.775 81.9604L122.769 81.9624L123.091 82.9091ZM126.818 80.8182L127.48 81.568L127.486 81.5626L127.492 81.5571L126.818 80.8182ZM129.091 77.4545V76.4545H128.396L128.154 77.1058L129.091 77.4545ZM152 77.4545L152.987 77.6149L153.176 76.4545H152V77.4545ZM146.409 90.0909L147.179 90.7292L147.182 90.7259L146.409 90.0909ZM134.727 98.3636L135.101 99.2913L135.104 99.2901L134.727 98.3636ZM117.818 100.273C110.491 100.273 104.234 98.8731 99.0124 96.1157L98.0785 97.8843C103.645 100.824 110.237 102.273 117.818 102.273V100.273ZM99.0184 96.1189C93.8271 93.3326 89.8317 89.3522 87.0154 84.1596L85.2573 85.1131C88.2592 90.6478 92.5366 94.9098 98.0725 97.8811L99.0184 96.1189ZM87.0186 84.1655C84.2329 78.946 82.8182 72.6608 82.8182 65.2727H80.8182C80.8182 72.915 82.2822 79.5388 85.2541 85.1072L87.0186 84.1655ZM82.8182 65.2727C82.8182 58.197 84.2444 52.0626 87.062 46.8383L85.3017 45.8889C82.3011 51.4526 80.8182 57.9242 80.8182 65.2727H82.8182ZM87.062 46.8383C89.8822 41.6091 93.8543 37.5498 98.9924 34.6431L98.0076 32.9024C92.5396 35.9957 88.2996 40.3302 85.3017 45.8889L87.062 46.8383ZM98.9924 34.6431C104.12 31.7425 110.201 30.2727 117.273 30.2727V28.2727C109.92 28.2727 103.486 29.803 98.0076 32.9024L98.9924 34.6431ZM117.273 30.2727C122.442 30.2727 127.091 31.0746 131.233 32.6611L131.949 30.7934C127.546 29.1072 122.649 28.2727 117.273 28.2727V30.2727ZM131.233 32.6611C135.377 34.2482 138.904 36.5487 141.828 39.5602L143.263 38.1671C140.126 34.9362 136.35 32.479 131.949 30.7934L131.233 32.6611ZM141.831 39.5637C144.754 42.5452 147.016 46.1792 148.608 50.4833L150.483 49.7895C148.803 45.245 146.397 41.3639 143.26 38.1636L141.831 39.5637ZM148.608 50.4833C150.196 54.7788 151 59.6435 151 65.0909H153C153 59.4474 152.167 54.3424 150.483 49.7895L148.608 50.4833ZM151 65.0909V70.9091H153V65.0909H151ZM152 69.9091H89.6364V71.9091H152V69.9091ZM90.6364 70.9091V57.0909H88.6364V70.9091H90.6364ZM89.6364 58.0909H128.909V56.0909H89.6364V58.0909ZM129.909 57.0758C129.876 54.9052 129.314 52.9576 128.198 51.2673L126.529 52.369C127.413 53.709 127.881 55.2766 127.909 57.1061L129.909 57.0758ZM128.211 51.2867C127.142 49.584 125.686 48.2645 123.863 47.3361L122.955 49.1184C124.465 49.887 125.646 50.9615 126.517 52.3497L128.211 51.2867ZM123.882 47.3463C122.083 46.38 120.053 45.9091 117.818 45.9091V47.9091C119.765 47.9091 121.463 48.317 122.936 49.1083L123.882 47.3463ZM117.818 45.9091C115.638 45.9091 113.615 46.3823 111.767 47.3393L112.687 49.1153C114.233 48.3147 115.938 47.9091 117.818 47.9091V45.9091ZM111.78 47.3328C109.936 48.2549 108.439 49.5488 107.309 51.2104L108.963 52.335C109.894 50.9664 111.125 49.8966 112.674 49.1217L111.78 47.3328ZM107.302 51.2219C106.188 52.9099 105.611 54.8678 105.546 57.0611L107.545 57.1207C107.601 55.2534 108.085 53.6658 108.971 52.3236L107.302 51.2219ZM105.545 57.0909V72H107.545V57.0909H105.545ZM105.545 72C105.545 74.386 106.046 76.5514 107.073 78.4714L108.836 77.5286C107.984 75.9334 107.545 74.0989 107.545 72H105.545ZM107.073 78.4714C108.102 80.398 109.586 81.9136 111.505 83.0055L112.495 81.2672C110.898 80.3591 109.686 79.1171 108.836 77.5286L107.073 78.4714ZM111.505 83.0055C113.445 84.1088 115.745 84.6364 118.364 84.6364V82.6364C116.013 82.6364 114.071 82.1639 112.495 81.2672L111.505 83.0055ZM118.364 84.6364C120.185 84.6364 121.871 84.3807 123.413 83.8557L122.769 81.9624C121.462 82.4072 119.997 82.6364 118.364 82.6364V84.6364ZM123.407 83.8578C124.974 83.3354 126.338 82.5756 127.48 81.568L126.157 80.0683C125.238 80.8789 124.117 81.5131 122.775 81.9604L123.407 83.8578ZM127.492 81.5571C128.64 80.5108 129.488 79.2559 130.028 77.8033L128.154 77.1058C127.725 78.2592 127.057 79.2468 126.144 80.0792L127.492 81.5571ZM129.091 78.4545H152V76.4545H129.091V78.4545ZM151.013 77.2941C150.252 81.9793 148.457 86.025 145.637 89.4559L147.182 90.7259C150.24 87.0053 152.173 82.6267 152.987 77.6149L151.013 77.2941ZM145.639 89.4527C142.819 92.8546 139.068 95.521 134.351 97.4372L135.104 99.2901C140.084 97.2668 144.121 94.4181 147.179 90.7292L145.639 89.4527ZM134.354 97.436C129.679 99.3175 124.175 100.273 117.818 100.273V102.273C124.371 102.273 130.139 101.289 135.101 99.2913L134.354 97.436ZM187.33 6.90909H188.33V5.90909H187.33V6.90909ZM187.33 100V101H188.33V100H187.33ZM162.239 100H161.239V101H162.239V100ZM162.239 6.90909V5.90909H161.239V6.90909H162.239ZM186.33 6.90909V100H188.33V6.90909H186.33ZM187.33 99H162.239V101H187.33V99ZM163.239 100V6.90909H161.239V100H163.239ZM162.239 7.90909H187.33V5.90909H162.239V7.90909ZM200.114 100H199.114V101H200.114V100ZM200.114 30.1818V29.1818H199.114V30.1818H200.114ZM225.205 30.1818H226.205V29.1818H225.205V30.1818ZM225.205 100V101H226.205V100H225.205ZM203.932 19.5455L203.253 20.2796L203.253 20.2796L203.932 19.5455ZM203.932 3.36363L203.253 2.62953L203.253 2.62953L203.932 3.36363ZM221.386 3.36363L220.703 4.09347L220.707 4.09773L221.386 3.36363ZM221.386 19.5455L220.707 18.8113L220.703 18.8156L221.386 19.5455ZM201.114 100V30.1818H199.114V100H201.114ZM200.114 31.1818H225.205V29.1818H200.114V31.1818ZM224.205 30.1818V100H226.205V30.1818H224.205ZM225.205 99H200.114V101H225.205V99ZM212.659 21.9091C209.509 21.9091 206.845 20.8777 204.611 18.8114L203.253 20.2796C205.867 22.6981 209.021 23.9091 212.659 23.9091V21.9091ZM204.611 18.8114C202.38 16.748 201.295 14.3126 201.295 11.4545H199.295C199.295 14.8995 200.635 17.8581 203.253 20.2796L204.611 18.8114ZM201.295 11.4545C201.295 8.59646 202.38 6.1611 204.611 4.09773L203.253 2.62953C200.635 5.05102 199.295 8.0096 199.295 11.4545H201.295ZM204.611 4.09773C206.845 2.03143 209.509 1 212.659 1V-1C209.021 -1 205.867 0.210991 203.253 2.62953L204.611 4.09773ZM212.659 1C215.842 1 218.503 2.03286 220.703 4.09346L222.07 2.63381C219.482 0.209566 216.325 -1 212.659 -1V1ZM220.707 4.09773C222.938 6.1611 224.023 8.59646 224.023 11.4545H226.023C226.023 8.0096 224.683 5.05102 222.065 2.62953L220.707 4.09773ZM224.023 11.4545C224.023 14.3126 222.938 16.748 220.707 18.8114L222.065 20.2796C224.683 17.8581 226.023 14.8995 226.023 11.4545H224.023ZM220.703 18.8156C218.503 20.8762 215.842 21.9091 212.659 21.9091V23.9091C216.325 23.9091 219.482 22.6995 222.07 20.2753L220.703 18.8156ZM252.17 96.7727L251.681 97.6446L251.684 97.6467L252.17 96.7727ZM239.761 84.1364L238.878 84.6052L238.879 84.6072L239.761 84.1364ZM239.761 46.4545L240.644 46.9254L240.645 46.9233L239.761 46.4545ZM252.17 33.8182L252.657 34.6921L252.66 34.69L252.17 33.8182ZM291.08 33.8182L290.59 34.69L290.593 34.6921L291.08 33.8182ZM303.489 46.4545L302.605 46.9233L302.606 46.9254L303.489 46.4545ZM303.489 84.1364L304.371 84.6072L304.372 84.6052L303.489 84.1364ZM291.08 96.7727L291.566 97.6467L291.569 97.6446L291.08 96.7727ZM277.307 80.5909L277.985 81.3263L277.985 81.3263L277.307 80.5909ZM280.898 74.5L281.85 74.8064L281.85 74.8064L280.898 74.5ZM280.898 55.6818L279.946 55.9882L279.947 55.9914L280.898 55.6818ZM277.307 49.5909L277.985 48.8556L277.985 48.8556L277.307 49.5909ZM262.352 55.6818L263.303 55.9914L263.304 55.9882L262.352 55.6818ZM262.352 74.5L263.304 74.1936L263.304 74.1936L262.352 74.5ZM271.625 100.273C264.181 100.273 257.872 98.7993 252.657 95.8988L251.684 97.6467C257.257 100.746 263.917 102.273 271.625 102.273V100.273ZM252.66 95.9009C247.431 92.9629 243.431 88.889 240.644 83.6655L238.879 84.6072C241.849 90.1716 246.122 94.522 251.681 97.6446L252.66 95.9009ZM240.645 83.6676C237.854 78.4098 236.443 72.2878 236.443 65.2727H234.443C234.443 72.5607 235.911 79.0144 238.878 84.6052L240.645 83.6676ZM236.443 65.2727C236.443 58.2575 237.854 52.1516 240.644 46.9254L238.879 45.9837C235.911 51.5453 234.443 57.9849 234.443 65.2727H236.443ZM240.645 46.9233C243.432 41.6706 247.43 37.5988 252.657 34.6921L251.684 32.9443C246.123 36.0376 241.848 40.39 238.878 45.9857L240.645 46.9233ZM252.66 34.69C257.875 31.7607 264.183 30.2727 271.625 30.2727V28.2727C263.916 28.2727 257.254 29.8151 251.681 32.9463L252.66 34.69ZM271.625 30.2727C279.067 30.2727 285.375 31.7607 290.59 34.69L291.569 32.9463C285.996 29.8151 279.334 28.2727 271.625 28.2727V30.2727ZM290.593 34.6921C295.82 37.5988 299.818 41.6706 302.605 46.9233L304.372 45.9857C301.402 40.39 297.127 36.0376 291.566 32.9443L290.593 34.6921ZM302.606 46.9254C305.396 52.1516 306.807 58.2575 306.807 65.2727H308.807C308.807 57.9849 307.339 51.5453 304.371 45.9837L302.606 46.9254ZM306.807 65.2727C306.807 72.2878 305.396 78.4098 302.605 83.6676L304.372 84.6052C307.339 79.0144 308.807 72.5607 308.807 65.2727H306.807ZM302.606 83.6655C299.819 88.889 295.819 92.9629 290.59 95.9009L291.569 97.6446C297.128 94.522 301.401 90.1716 304.371 84.6072L302.606 83.6655ZM290.593 95.8988C285.378 98.7993 279.069 100.273 271.625 100.273V102.273C279.333 102.273 285.993 100.746 291.566 97.6467L290.593 95.8988ZM271.807 83.7273C274.177 83.7273 276.252 82.9224 277.985 81.3263L276.629 79.8556C275.27 81.1079 273.68 81.7273 271.807 81.7273V83.7273ZM277.985 81.3263C279.691 79.7537 280.965 77.5564 281.85 74.8064L279.946 74.1936C279.134 76.7163 278.014 78.5796 276.629 79.8556L277.985 81.3263ZM281.85 74.8064C282.738 72.0456 283.17 68.8007 283.17 65.0909H281.17C281.17 68.6539 280.754 71.6817 279.946 74.1936L281.85 74.8064ZM283.17 65.0909C283.17 61.3523 282.739 58.1056 281.849 55.3722L279.947 55.9914C280.754 58.4702 281.17 61.4962 281.17 65.0909H283.17ZM281.85 55.3755C280.965 52.6254 279.691 50.4281 277.985 48.8556L276.629 50.3263C278.014 51.6022 279.134 53.4655 279.946 55.9882L281.85 55.3755ZM277.985 48.8556C276.252 47.2594 274.177 46.4545 271.807 46.4545V48.4545C273.68 48.4545 275.27 49.0739 276.629 50.3263L277.985 48.8556ZM271.807 46.4545C269.332 46.4545 267.168 47.2485 265.371 48.8427L266.698 50.3391C268.112 49.0848 269.797 48.4545 271.807 48.4545V46.4545ZM265.371 48.8427C263.597 50.4155 262.288 52.6171 261.4 55.3755L263.304 55.9882C264.113 53.4738 265.259 51.6148 266.698 50.3391L265.371 48.8427ZM261.401 55.3722C260.511 58.1056 260.08 61.3523 260.08 65.0909H262.08C262.08 61.4962 262.496 58.4702 263.303 55.9914L261.401 55.3722ZM260.08 65.0909C260.08 68.8007 260.512 72.0456 261.4 74.8064L263.304 74.1936C262.496 71.6817 262.08 68.6539 262.08 65.0909H260.08ZM261.4 74.8064C262.288 77.5647 263.597 79.7663 265.371 81.3391L266.698 79.8427C265.259 78.567 264.113 76.708 263.304 74.1936L261.4 74.8064ZM265.371 81.3391C267.168 82.9333 269.332 83.7273 271.807 83.7273V81.7273C269.797 81.7273 268.112 81.097 266.698 79.8427L265.371 81.3391ZM343.08 60.7273L342.08 60.7141V60.7273H343.08ZM343.08 100V101H344.08V100H343.08ZM317.989 100H316.989V101H317.989V100ZM317.989 30.1818V29.1818H316.989V30.1818H317.989ZM341.807 30.1818H342.807V29.1818H341.807V30.1818ZM341.807 43.4545H340.807V44.4545H341.807V43.4545ZM342.534 43.4545V44.4545H343.249L343.48 43.7785L342.534 43.4545ZM350.534 33.0455L349.987 32.2084L349.984 32.2104L350.534 33.0455ZM376.852 32.6818L376.322 33.5299L376.331 33.5349L376.852 32.6818ZM385.352 41.9545L384.461 42.4072L384.463 42.4127L385.352 41.9545ZM388.352 55.4545L387.352 55.4486V55.4545H388.352ZM388.352 100V101H389.352V100H388.352ZM363.261 100H362.261V101H363.261V100ZM363.261 60.7273L362.261 60.7185V60.7273H363.261ZM360.625 52.5909L359.879 53.2567L359.885 53.263L360.625 52.5909ZM347.852 51L348.354 51.865L348.359 51.8619L347.852 51ZM344.352 54.8182L345.247 55.2654L345.25 55.2589L344.352 54.8182ZM342.08 60.7273V100H344.08V60.7273H342.08ZM343.08 99H317.989V101H343.08V99ZM318.989 100V30.1818H316.989V100H318.989ZM317.989 31.1818H341.807V29.1818H317.989V31.1818ZM340.807 30.1818V43.4545H342.807V30.1818H340.807ZM341.807 44.4545H342.534V42.4545H341.807V44.4545ZM343.48 43.7785C344.925 39.5586 347.455 36.2709 351.084 33.8806L349.984 32.2104C345.976 34.8503 343.173 38.502 341.588 43.1306L343.48 43.7785ZM351.081 33.8825C354.749 31.4856 359.039 30.2727 363.989 30.2727V28.2727C358.696 28.2727 354.016 29.575 349.987 32.2084L351.081 33.8825ZM363.989 30.2727C368.77 30.2727 372.868 31.3708 376.322 33.5298L377.382 31.8338C373.564 29.4474 369.086 28.2727 363.989 28.2727V30.2727ZM376.331 33.5349C379.835 35.6779 382.542 38.6281 384.461 42.4072L386.244 41.5019C384.163 37.4022 381.203 34.1706 377.374 31.8287L376.331 33.5349ZM384.463 42.4127C386.41 46.1894 387.382 50.5263 387.352 55.4486L389.352 55.4605C389.383 50.2616 388.355 45.5985 386.241 41.4964L384.463 42.4127ZM387.352 55.4545V100H389.352V55.4545H387.352ZM388.352 99H363.261V101H388.352V99ZM364.261 100V60.7273H362.261V100H364.261ZM364.261 60.736C364.293 57.1074 363.368 54.1251 361.365 51.9188L359.885 53.263C361.458 54.9961 362.29 57.4381 362.261 60.7185L364.261 60.736ZM361.371 51.9251C359.387 49.7016 356.638 48.6364 353.261 48.6364V50.6364C356.188 50.6364 358.348 51.5408 359.879 53.2567L361.371 51.9251ZM353.261 48.6364C351.049 48.6364 349.066 49.1258 347.345 50.1381L348.359 51.8619C349.729 51.056 351.352 50.6364 353.261 50.6364V48.6364ZM347.351 50.135C345.654 51.119 344.354 52.5446 343.455 54.3775L345.25 55.2589C345.986 53.7585 347.02 52.6385 348.354 51.865L347.351 50.135ZM343.458 54.371C342.557 56.1725 342.111 58.2983 342.08 60.7141L344.079 60.7404C344.108 58.5502 344.511 56.7366 345.247 55.2654L343.458 54.371Z" fill="white" mask="url(#path-1-outside-1_1_5)"/>
</svg>
