<svg width="389" height="102" viewBox="0 0 389 102" fill="none" xmlns="http://www.w3.org/2000/svg">
<path d="M0 100V6.90909H40.1818C47.0909 6.90909 53.1364 8.16666 58.3182 10.6818C63.5 13.197 67.5303 16.8182 70.4091 21.5455C73.2879 26.2727 74.7273 31.9394 74.7273 38.5455C74.7273 45.2121 73.2424 50.8333 70.2727 55.4091C67.3333 59.9848 63.197 63.4394 57.8636 65.7727C52.5606 68.1061 46.3636 69.2727 39.2727 69.2727H15.2727V49.6364H34.1818C37.1515 49.6364 39.6818 49.2727 41.7727 48.5455C43.8939 47.7879 45.5152 46.5909 46.6364 44.9545C47.7879 43.3182 48.3636 41.1818 48.3636 38.5455C48.3636 35.8788 47.7879 33.7121 46.6364 32.0455C45.5152 30.3485 43.8939 29.1061 41.7727 28.3182C39.6818 27.5 37.1515 27.0909 34.1818 27.0909H25.2727V100H0ZM54.5455 57.2727L77.8182 100H50.3636L27.6364 57.2727H54.5455ZM117.818 101.273C110.364 101.273 103.939 99.8485 98.5455 97C93.1818 94.1212 89.0455 90 86.1364 84.6364C83.2576 79.2424 81.8182 72.7879 81.8182 65.2727C81.8182 58.0606 83.2727 51.7576 86.1818 46.3636C89.0909 40.9697 93.197 36.7727 98.5 33.7727C103.803 30.7727 110.061 29.2727 117.273 29.2727C122.545 29.2727 127.318 30.0909 131.591 31.7273C135.864 33.3636 139.515 35.7424 142.545 38.8636C145.576 41.9545 147.909 45.7121 149.545 50.1364C151.182 54.5606 152 59.5455 152 65.0909V70.9091H89.6364V57.0909H128.909C128.879 55.0909 128.364 53.3333 127.364 51.8182C126.394 50.2727 125.076 49.0758 123.409 48.2273C121.773 47.3485 119.909 46.9091 117.818 46.9091C115.788 46.9091 113.924 47.3485 112.227 48.2273C110.53 49.0758 109.167 50.2576 108.136 51.7727C107.136 53.2879 106.606 55.0606 106.545 57.0909V72C106.545 74.2424 107.015 76.2424 107.955 78C108.894 79.7576 110.242 81.1364 112 82.1364C113.758 83.1364 115.879 83.6364 118.364 83.6364C120.091 83.6364 121.667 83.3939 123.091 82.9091C124.545 82.4242 125.788 81.7273 126.818 80.8182C127.848 79.8788 128.606 78.7576 129.091 77.4545H152C151.212 82.303 149.348 86.5152 146.409 90.0909C143.47 93.6364 139.576 96.3939 134.727 98.3636C129.909 100.303 124.273 101.273 117.818 101.273ZM187.33 6.90909V100H162.239V6.90909H187.33ZM200.114 100V30.1818H225.205V100H200.114ZM212.659 22.9091C209.265 22.9091 206.356 21.7879 203.932 19.5455C201.508 17.303 200.295 14.6061 200.295 11.4545C200.295 8.30303 201.508 5.60606 203.932 3.36363C206.356 1.12121 209.265 0 212.659 0C216.083 0 218.992 1.12121 221.386 3.36363C223.811 5.60606 225.023 8.30303 225.023 11.4545C225.023 14.6061 223.811 17.303 221.386 19.5455C218.992 21.7879 216.083 22.9091 212.659 22.9091ZM271.625 101.273C264.049 101.273 257.564 99.7727 252.17 96.7727C246.777 93.7424 242.64 89.5303 239.761 84.1364C236.883 78.7121 235.443 72.4242 235.443 65.2727C235.443 58.1212 236.883 51.8485 239.761 46.4545C242.64 41.0303 246.777 36.8182 252.17 33.8182C257.564 30.7879 264.049 29.2727 271.625 29.2727C279.201 29.2727 285.686 30.7879 291.08 33.8182C296.473 36.8182 300.61 41.0303 303.489 46.4545C306.367 51.8485 307.807 58.1212 307.807 65.2727C307.807 72.4242 306.367 78.7121 303.489 84.1364C300.61 89.5303 296.473 93.7424 291.08 96.7727C285.686 99.7727 279.201 101.273 271.625 101.273ZM271.807 82.7273C273.928 82.7273 275.761 82.0152 277.307 80.5909C278.852 79.1667 280.049 77.1364 280.898 74.5C281.746 71.8636 282.17 68.7273 282.17 65.0909C282.17 61.4242 281.746 58.2879 280.898 55.6818C280.049 53.0455 278.852 51.0152 277.307 49.5909C275.761 48.1667 273.928 47.4545 271.807 47.4545C269.564 47.4545 267.64 48.1667 266.034 49.5909C264.428 51.0152 263.201 53.0455 262.352 55.6818C261.504 58.2879 261.08 61.4242 261.08 65.0909C261.08 68.7273 261.504 71.8636 262.352 74.5C263.201 77.1364 264.428 79.1667 266.034 80.5909C267.64 82.0152 269.564 82.7273 271.807 82.7273ZM343.08 60.7273V100H317.989V30.1818H341.807V43.4545H342.534C344.049 39.0303 346.716 35.5606 350.534 33.0455C354.383 30.5303 358.867 29.2727 363.989 29.2727C368.928 29.2727 373.216 30.4091 376.852 32.6818C380.519 34.9242 383.352 38.0151 385.352 41.9545C387.383 45.8939 388.383 50.3939 388.352 55.4545V100H363.261V60.7273C363.292 57.2727 362.413 54.5606 360.625 52.5909C358.867 50.6212 356.413 49.6364 353.261 49.6364C351.201 49.6364 349.398 50.0909 347.852 51C346.337 51.8788 345.17 53.1515 344.352 54.8182C343.534 56.4545 343.11 58.4242 343.08 60.7273Z" fill="black"/>
</svg>
